<?xml version="1.0" encoding="utf-8"?>
<!-- Generator: Adobe Illustrator 18.1.1, SVG Export Plug-In . SVG Version: 6.00 Build 0)  -->
<svg version="1.1" id="Layer_1" xmlns="http://www.w3.org/2000/svg" xmlns:xlink="http://www.w3.org/1999/xlink" x="0px" y="0px"
	 viewBox="0 0 128.549 21.132" style="enable-background:new 0 0 128.549 21.132;" xml:space="preserve">
<style type="text/css">
	.st0{fill:#2A2522;}
</style>
<g>
	<path class="st0" d="M20.092,12.356c0,1.193,0.251,1.571,0.629,1.571c0.335,0,0.628-0.168,0.733-0.315
		c0.083-0.104,0.125-0.146,0.209-0.084l0.21,0.168c0.063,0.063,0.104,0.168-0.021,0.378c-0.168,0.313-0.566,1.026-1.634,1.026
		c-0.754,0-1.298-0.545-1.487-1.404h-0.042c-0.44,0.524-1.131,0.965-2.074,1.278C16.217,15.1,15.84,15.1,15.379,15.1
		c-0.503,0-1.257-0.419-1.257-1.739c0-0.964,0.44-1.801,2.095-2.534c0.942-0.419,2.032-0.922,2.367-1.215V8.271
		c-0.041-0.356-0.063-0.901-0.293-1.173c-0.23-0.273-0.649-0.461-1.257-0.461c-0.419,0-1.068,0.168-1.362,0.44
		c-0.293,0.272-0.104,0.586-0.104,0.962c0,0.734-0.252,1.195-1.11,1.195c-0.335,0-0.502-0.189-0.502-0.67
		c0-0.671,0.586-1.467,1.445-1.969c0.88-0.525,1.613-0.734,2.555-0.734c0.985,0,1.382,0.293,1.676,0.567
		c0.439,0.439,0.461,0.922,0.461,1.486v3.205V12.356z M18.564,10.24c-0.754,0.564-2.808,0.984-2.808,2.723
		c0,0.774,0.461,1.151,1.089,1.151c0.608,0,1.718-0.733,1.718-1.298V10.24z"/>
	<path class="st0" d="M37.719,9.276c-0.042,0.189-0.063,0.523-0.063,1.005c0,2.053,1.299,3.604,2.975,3.604
		c1.277,0,2.178-0.734,2.535-1.425c0.043-0.084,0.126-0.126,0.189-0.104l0.272,0.146c0.063,0.022,0.105,0.084,0,0.314
		c-0.377,0.838-1.466,2.283-3.331,2.283c-1.194,0-2.514-0.356-3.289-1.488c-0.733-1.068-0.921-1.842-0.921-3.309
		c0-0.816,0.209-2.221,1.319-3.331c0.901-0.921,1.948-1.11,2.995-1.11c2.409,0,3.08,2.262,3.08,3.08
		c0,0.293-0.251,0.335-0.586,0.335H37.719z M41.05,8.649c0.398,0,0.565-0.106,0.565-0.294c0-0.481-0.251-1.864-1.613-1.864
		c-0.921,0-1.801,0.607-2.199,2.158H41.05z"/>
	<path class="st0" d="M62.44,13.902c-0.019-0.074-0.057-0.16-0.091-0.225c-0.07-0.137-0.225-0.084-0.319-0.019
		c-0.428,0.295-0.786,0.401-1.1,0.401c-1.185,0-1.339-1.411-1.758-3.207c-0.259-1.109-0.684-3.643-2.003-3.857l0.029-0.086
		c1.357-1.236,5.604-4.643,6.544-5.197c0.465-0.273,0.986-0.398,1.28-0.398h0.292c0.105,0,0.181-0.043,0.215-0.146l0.033-0.566
		c0.02-0.063-0.009-0.104-0.114-0.104c-0.251,0-0.856,0.063-1.463,0.063c-0.964,0-1.951-0.063-2.202-0.063
		c-0.084,0-0.139,0.042-0.172,0.147l-0.007,0.48c-0.034,0.105-0.026,0.146,0.058,0.146h0.441c0.272,0,0.31,0.21,0.027,0.504
		c-0.276,0.271-5.547,4.843-6.115,5.178l-1.032,0.074l0.288-0.899c0.329-1.026,1.296-3.851,1.396-4.165
		c0.162-0.502,0.376-0.648,0.795-0.648h0.732c0.105,0,0.16-0.043,0.193-0.146l0.027-0.545c0.026-0.084-0.002-0.126-0.127-0.126
		c-0.272,0-0.836,0.063-2.24,0.063c-1.57,0-2.179-0.063-2.43-0.063c-0.126,0-0.182,0.042-0.208,0.126l-0.027,0.545
		c-0.034,0.104-0.005,0.146,0.121,0.146h0.881c0.523,0,0.541,0.271,0.467,0.502c-0.054,0.168-1.157,3.809-1.277,4.186l-0.39,1.215
		c-0.838,2.618-2.047,6.262-2.129,6.45c-0.109,0.21-0.31,0.378-0.687,0.378h-0.858c-0.084,0-0.154,0.02-0.188,0.125l-0.026,0.545
		c-0.034,0.104-0.005,0.146,0.1,0.146c0.188,0,0.731-0.063,2.385-0.063c1.488,0,2.096,0.063,2.347,0.063
		c0.105,0,0.146-0.063,0.173-0.146l0.026-0.545c0.026-0.084-0.022-0.125-0.127-0.125H53.28c-0.272,0-0.4-0.189-0.334-0.461
		c0.072-0.294,0.97-3.225,1.306-4.273l0.493-1.539c0,0,0.871-0.081,1.173-0.044c1.236,0.152,1.405,3.631,2.123,5.812
		c0.315,0.956,0.768,1.521,1.991,1.521c0.5,0,1.095-0.127,2.136-0.757C62.258,14.252,62.5,14.129,62.44,13.902z"/>
	<path class="st0" d="M13.03,13.902c-0.043-0.074-0.109-0.16-0.164-0.225c-0.113-0.137-0.251-0.084-0.325-0.019
		c-0.333,0.295-0.656,0.401-0.971,0.401c-1.281,0-1.828-1.373-2.833-3.165c-0.398-0.714-1.713-3.647-3.19-3.899V6.91
		c0.962-1.236,4.118-4.643,4.881-5.197c0.377-0.273,0.858-0.398,1.152-0.398h0.44c0.104,0,0.167-0.043,0.167-0.146V0.602
		c0-0.063-0.042-0.104-0.147-0.104c-0.251,0-0.984,0.063-1.591,0.063c-0.964,0-1.823-0.063-2.074-0.063
		c-0.084,0-0.126,0.042-0.126,0.147v0.48c0,0.105,0.021,0.146,0.105,0.146h0.293c0.273,0,0.377,0.21,0.189,0.504
		C8.647,2.047,4.988,6.618,4.527,6.953L3.371,7.027V6.128c0-1.026,0.063-3.851,0.063-4.165c0-0.502,0.168-0.648,0.586-0.648H4.9
		c0.105,0,0.146-0.043,0.146-0.146V0.623c0-0.084-0.042-0.126-0.168-0.126c-0.272,0-0.963,0.063-2.367,0.063
		c-1.571,0-2.052-0.063-2.303-0.063c-0.126,0-0.168,0.042-0.168,0.126v0.545c0,0.104,0.042,0.146,0.168,0.146h0.733
		c0.523,0,0.628,0.271,0.628,0.502c0,0.168,0.063,3.809,0.063,4.186v1.215c0,2.618-0.042,6.262-0.063,6.45
		c-0.041,0.21-0.188,0.378-0.565,0.378H0.147C0.063,14.045,0,14.064,0,14.17v0.545c0,0.104,0.042,0.146,0.147,0.146
		c0.188,0,0.711-0.063,2.366-0.063c1.487,0,2.115,0.063,2.367,0.063c0.105,0,0.126-0.063,0.126-0.146V14.17
		c0-0.084-0.063-0.125-0.168-0.125H3.916c-0.272,0-0.46-0.189-0.481-0.461c-0.021-0.294-0.063-3.225-0.063-4.273V7.773
		c0,0,0.509-0.036,0.823,0c1.286,0.151,2.608,3.587,4.025,5.768c0.622,0.956,1.403,1.521,2.626,1.521c0.5,0,1.202-0.127,2.043-0.757
		C12.96,14.252,13.163,14.129,13.03,13.902z"/>
	<path class="st0" d="M29.373,15.006v0.196c-0.244-0.336-0.755-1.169-0.391-1.478c0.122-0.103,0.256-0.203,0.391-0.305v0.904
		c0.733,0,1.404-0.226,1.885-0.535c0.879-0.576,1.55-1.479,1.55-3.352c0-1.049-0.188-2.529-1.592-3.352
		c-0.566-0.329-1.236-0.494-1.843-0.494v0.836c-0.076-0.1-0.157-0.195-0.248-0.287c-0.13-0.13-0.426-0.454-0.501-0.621
		c-0.01-0.023-0.016-0.047-0.02-0.07c0.026-0.02,0.052-0.041,0.077-0.064c0.201-0.185,0.35-0.477,0.458-0.727
		c0.003-0.009,0.006-0.015,0.01-0.022c0.081-0.06,0.158-0.11,0.225-0.153v0.433c0.817-0.021,1.569,0.104,2.343,0.419
		c1.424,0.565,2.682,1.842,2.682,4.125c0,2.074-1.131,3.479-2.661,4.107C30.941,14.881,30.294,15.048,29.373,15.006z"/>
	<path class="st0" d="M27.971,15.006v0.196c0.244-0.336,0.755-1.169,0.391-1.478c-0.121-0.103-0.257-0.203-0.391-0.305v0.904
		c-0.733,0-1.403-0.226-1.885-0.535c-0.879-0.576-1.55-1.479-1.55-3.352c0-1.049,0.188-2.529,1.592-3.352
		c0.566-0.329,1.236-0.494,1.843-0.494v0.836c0.076-0.1,0.157-0.195,0.248-0.287c0.131-0.13,0.426-0.454,0.501-0.621
		c0.01-0.023,0.017-0.047,0.02-0.07c-0.025-0.02-0.051-0.041-0.077-0.064c-0.2-0.185-0.349-0.477-0.458-0.727
		c-0.003-0.009-0.006-0.015-0.009-0.022c-0.081-0.06-0.158-0.11-0.225-0.153v0.433c-0.817-0.021-1.568,0.104-2.344,0.419
		c-1.424,0.565-2.681,1.842-2.681,4.125c0,2.074,1.131,3.479,2.661,4.107C26.402,14.881,27.048,15.048,27.971,15.006z"/>
	<path class="st0" d="M29.405,14.524c0,1.088,0,3.956,0.021,4.605c0.021,0.355,0.105,0.648,0.545,0.648h0.942
		c0.189,0,0.231,0.063,0.231,0.189v0.355c0,0.126-0.042,0.21-0.126,0.21c-0.146,0-1.068-0.063-2.367-0.063
		c-1.34,0-2.179,0.063-2.367,0.063c-0.104,0-0.146-0.084-0.146-0.21v-0.355c0-0.147,0.042-0.189,0.272-0.189h1.005
		c0.231,0,0.44-0.146,0.461-0.523c0.021-0.648,0.021-3.956,0.021-5.171V6.847c0-1.487-0.021-3.394-0.063-3.939
		c-0.042-0.712-0.377-1.047-1.047-1.257l-0.419-0.146c-0.104-0.042-0.125-0.063-0.125-0.104V1.232c0-0.063,0.058-0.123,0.188-0.146
		c0.847-0.15,1.676-0.416,2.451-0.92C29.07,0.041,29.196,0,29.321,0c0.147,0,0.188,0.104,0.168,0.376
		c-0.021,1.153-0.085,5.214-0.085,6.366V14.524z"/>
	<path class="st0" d="M87.926,14.74c-0.104,0-0.186-0.041-0.123-0.213l1.566-3.856c0.536-1.342,1.154-2.813,1.195-3.195
		c0-0.213-0.062-0.342-0.206-0.342c-0.288,0-1.546,1.258-1.731,1.514c-0.062,0.084-0.165,0.063-0.248-0.022l-0.186-0.191
		c-0.061-0.064-0.082-0.129-0.02-0.193c0.474-0.574,2.082-2.363,3.381-2.363c0.289,0,0.494,0.256,0.494,0.596
		c0,0.512-1.257,3.324-1.463,3.899l0.103,0.021c0.948-1.512,3.071-4.516,4.824-4.516c0.681,0,0.907,0.532,0.907,0.916
		c0,0.788-0.824,2.834-1.176,3.686l0.104,0.021c1.135-1.79,2.99-4.622,4.741-4.622c0.64,0,0.99,0.553,0.99,1.022
		c0,0.725-0.392,1.62-1.258,3.793c-0.475,1.214-0.866,2.109-0.866,2.492c0,0.149,0.063,0.277,0.226,0.277
		c0.371,0,1.354-1.523,1.479-1.693c0.062-0.106,0.164-0.084,0.247,0l0.229,0.148c0.063,0.064,0.082,0.127,0.042,0.234
		c-0.063,0.149-1.845,2.801-3.185,2.801c-0.305,0-0.508-0.312-0.508-0.631c0-0.533,0.418-1.84,1.242-3.928
		c0.598-1.512,0.99-2.406,0.99-3.025c0-0.255-0.166-0.404-0.434-0.404c-0.701,0-2.721,2.365-3.979,4.261
		c-0.145,0.234-0.577,0.767-0.846,1.513l-0.701,1.875c-0.041,0.105-0.123,0.127-0.287,0.127h-0.825c-0.165,0-0.247-0.041-0.187-0.17
		l1.402-3.537c0.578-1.469,1.195-2.981,1.195-3.578c0-0.277-0.164-0.426-0.412-0.426c-0.701,0-2.659,2.172-3.834,3.877
		c-0.31,0.447-0.722,1.043-1.031,1.811l-0.742,1.897c-0.082,0.127-0.145,0.127-0.33,0.127H87.926z"/>
	<path class="st0" d="M102.177,8.923c-0.041-0.022-0.062-0.085-0.021-0.192c0.123-0.256,1.291-2.852,2.549-2.852
		c0.639,0,0.865,0.532,1.03,2.406c0.206,2.43,0.351,4.922,0.392,6.307l0.082-0.021c0.578-0.959,1.814-3.494,2.104-4.516
		c0.104-0.363,0.309-0.938,0.309-1.854c0-0.234-0.041-0.618-0.102-0.789c-0.083-0.191-0.227-0.49-0.227-0.766
		c0-0.342,0.185-0.768,0.845-0.768c0.557,0,0.825,0.532,0.825,1.064c0,1.385-0.784,3.175-1.382,4.517
		c-0.906,2.046-3.072,5.858-4.865,7.67c-0.557,0.597-1.917,1.938-3.133,1.938c-0.805,0-1.154-0.512-1.154-1.002
		c0-0.531,0.453-0.852,0.823-0.873c0.351-0.021,0.536,0.148,0.763,0.342c0.145,0.127,0.352,0.254,0.516,0.254
		c0.207,0,0.558-0.127,0.969-0.447c1.135-0.873,1.938-2.108,2.268-2.875c0.166-0.405,0.186-0.874,0.166-1.193
		c-0.041-0.49-0.434-6.284-0.66-7.393c-0.082-0.404-0.186-0.596-0.351-0.596c-0.371,0-1.03,1.256-1.196,1.725
		c-0.04,0.086-0.123,0.086-0.184,0.064L102.177,8.923z"/>
	<path class="st0" d="M114.834,4.26c0.062-0.17,0.123-0.235,0.269-0.299l1.277-0.469c0.042-0.021,0.103-0.021,0.146-0.021
		c0.04,0,0.061,0.043,0.061,0.086c0,0.043,0,0.105-0.041,0.17l-0.948,2.216c0.124-0.021,0.269-0.042,0.413-0.042
		c0.145-0.022,0.309-0.022,0.412-0.022c1.958,0,2.844,1.448,2.844,2.832c0,1.492-0.639,3.025-2.453,4.432
		c-0.906,0.683-2.597,1.406-4.287,1.598l-1.465,4.219c-0.371,1.15-0.205,1.448,0.66,1.448h0.577c0.103,0,0.165,0.107,0.146,0.171
		l-0.146,0.426c-0.041,0.064-0.083,0.128-0.247,0.128c-0.227,0-0.846-0.064-2.165-0.064c-1.422,0-1.979,0.064-2.206,0.064
		c-0.123,0-0.165-0.042-0.144-0.128l0.124-0.426c0.02-0.085,0.04-0.171,0.144-0.171h0.475c0.804,0,1.134-0.489,1.567-1.726
		l4.039-11.483c-1.01,0.299-2.123,1.363-2.556,1.918c-0.062,0.084-0.144,0.064-0.185,0.021l-0.227-0.213
		c-0.061-0.064-0.083-0.129-0.021-0.193c0.721-0.894,1.689-1.873,3.277-2.492L114.834,4.26z M112.773,14.102
		c2.474-0.404,5.051-2.279,5.051-4.9c0-1.64-0.948-2.449-1.855-2.449c-0.31,0-0.516,0.043-0.659,0.064L112.773,14.102z"/>
	<path class="st0" d="M78.901,12.127l-0.165-0.17c-0.082-0.086-0.186-0.106-0.246,0c-0.125,0.17-1.11,1.533-1.482,1.533
		c-0.164,0-0.227-0.127-0.227-0.276c0-0.384,0.393-1.278,0.867-2.493c0.555-1.391,0.893-2.266,1.102-2.893
		c0.133-0.398,0.606-1.949-1.196-1.949c-0.231,0-1.692-0.004-4.329,1.054c-0.082,0.032-0.088,0.099-0.057,0.184l0.124,0.29
		c0.021,0.057,0.087,0.11,0.178,0.059c4.565-1.667,4.151-0.127,4.076,0.146c-0.189,0.702-0.589,1.695-1.019,2.783
		c-0.824,2.088-1.402,3.516-1.402,4.049c0,0.318,0.313,0.51,0.52,0.51c1.34,0,3.236-2.442,3.299-2.592
		C78.984,12.256,78.964,12.191,78.901,12.127z"/>
	<path class="st0" d="M128.467,5.879c0.082,0,0.104,0.105,0.061,0.191c-0.391,0.873-1.441,3.813-1.545,4.154
		c-0.124,0.361-0.99,3.004-0.99,3.195c0,0.191,0.104,0.256,0.227,0.256c0.248,0,1.3-1.107,1.443-1.3
		c0.063-0.064,0.124-0.106,0.164-0.042l0.24,0.172c0.061,0.064,0.082,0.106,0.041,0.17c-0.226,0.427-1.926,2.277-3.101,2.277
		c-0.248,0-0.581-0.084-0.581-0.361c0-0.32,0.206-0.98,0.989-3.238l-0.102-0.043c-0.866,1.363-2.948,3.642-4.412,3.642
		c-0.475,0-1.113-0.404-1.113-1.363c0-3.109,3.381-7.711,5.896-7.711c0.865,0,1.257,0.383,1.463,0.724l0.393-0.574
		c0.063-0.086,0.123-0.149,0.207-0.149H128.467z M125.868,9.585c0.289-0.617,0.495-1.149,0.495-1.768
		c0-0.575-0.206-1.257-0.969-1.257c-1.897,0-4.103,4.494-4.103,6.518c0,0.49,0.206,0.746,0.557,0.746
		C122.879,13.825,125.498,10.373,125.868,9.585z"/>
	<path class="st0" d="M76.723,6.195l-0.105-0.051c-0.164,0-0.313,0.162-0.439,0.367c0.169,0.008,0.339-0.022,0.525-0.174
		c0.032-0.027,0.062-0.055,0.09-0.085C76.77,6.234,76.744,6.215,76.723,6.195z"/>
	<path class="st0" d="M75.495,6.461c-0.058,0.013-0.116,0.02-0.174,0.023c0.019,0.053-0.024,0.053-0.046,0.124
		c-0.857,2.815-2.945,7.036-4.055,6.962c-0.326-0.022-0.392-0.305-0.824-0.367c-0.393-0.057-0.9,0.231-0.996,0.846
		c-0.098,0.633,0.342,1.019,0.873,1.053c1.076,0.066,1.965-0.676,3.512-3.337c0.529-0.909,1.438-3.001,2.168-4.628
		c0.076-0.17,0.178-0.42,0.301-0.625C76.014,6.5,75.773,6.404,75.495,6.461z"/>
	<path class="st0" d="M85.537,8.769c-0.815,0.043-2.078,1.179-2.701,1.954h-0.084c0,0,1.619-3.365,1.619-4.312
		c0-0.362-0.247-0.532-0.494-0.532c-1.32-0.064-3.274,2.492-3.357,2.62c-0.063,0.085-0.02,0.128,0.063,0.191l0.164,0.192
		c0.063,0.063,0.144,0.063,0.227-0.021c0.33-0.341,1.151-1.492,1.501-1.492c0.165,0,0.289,0.086,0.289,0.277
		c0,1.424-1.997,4.309-1.997,6.272c0,0.617,0.563,1.072,1.188,1.168c1.092,0.167,2.299-0.757,2.961-1.417
		c1.379-1.401,1.84-2.827,1.812-3.693C86.701,9.197,86.277,8.729,85.537,8.769z M84.006,13.467c-0.543,0.58-1.102,0.902-1.504,0.902
		c-0.312,0-0.531-0.063-0.531-0.514c0-1.467,1.926-4.125,2.994-4.125c0.278,0,0.463,0.17,0.475,0.482
		C85.476,11.314,84.751,12.67,84.006,13.467z"/>
	<path class="st0" d="M69.492,5.879c-0.66,0-0.845,0.426-0.845,0.768c0,0.275,0.144,0.574,0.227,0.766
		c0.061,0.171,0.102,0.555,0.102,0.789c0,0.916-0.205,1.49-0.309,1.854c-0.289,1.021-1.525,3.557-2.103,4.516l-0.083,0.021
		c-0.041-1.385-0.186-3.877-0.392-6.307c-0.165-1.874-0.392-2.406-1.03-2.406c-0.271,0-0.534,0.121-0.781,0.314
		c-1.065,0.74-2.095,1.995-2.151,2.084c-0.062,0.085-0.021,0.128,0.062,0.191l0.165,0.191c0.062,0.064,0.144,0.064,0.227-0.022
		c0.329-0.34,1.299-1.49,1.649-1.49c0.112,0,0.205,0.04,0.253,0.127c-0.002,0.003-0.002,0.005-0.003,0.008
		c0.008,0.01,0.015,0.022,0.022,0.034c0.011,0.031,0.017,0.066,0.017,0.107c0,0.009,0.016,0.031,0.037,0.06
		c0.023,0.113,0.042,0.255,0.071,0.397c0.226,1.108,0.618,6.902,0.66,7.393c0.02,0.319,0,0.788-0.165,1.193
		c-0.33,0.767-1.134,2.002-2.268,2.875c-0.412,0.32-0.762,0.447-0.969,0.447c-0.165,0-0.371-0.127-0.515-0.254
		c-0.227-0.193-0.412-0.363-0.763-0.342c-0.371,0.021-0.825,0.342-0.825,0.873c0,0.49,0.351,1.002,1.155,1.002
		c1.216,0,2.577-1.342,3.134-1.938c1.794-1.812,3.958-5.624,4.865-7.67c0.599-1.342,1.381-3.132,1.381-4.517
		C70.316,6.411,70.049,5.879,69.492,5.879z"/>
</g>
</svg>
