<svg id="Layer_1" xmlns="http://www.w3.org/2000/svg" viewBox="0 0 128.549 21.132"><style>.st0{fill:#2a2522}</style><path class="st0" d="M20.092 12.356c0 1.193.251 1.571.629 1.571.335 0 .628-.168.733-.315.083-.104.125-.146.209-.084l.21.168c.063.063.104.168-.021.378-.168.313-.566 1.026-1.634 1.026-.754 0-1.298-.545-1.487-1.404h-.042c-.44.524-1.131.965-2.074 1.278-.398.126-.775.126-1.236.126-.503 0-1.257-.419-1.257-1.739 0-.964.44-1.801 2.095-2.534.942-.419 2.032-.922 2.367-1.215V8.271c-.041-.356-.063-.901-.293-1.173-.23-.273-.649-.461-1.257-.461-.419 0-1.068.168-1.362.44-.293.272-.104.586-.104.962 0 .734-.252 1.195-1.11 1.195-.335 0-.502-.189-.502-.67 0-.671.586-1.467 1.445-1.969.88-.525 1.613-.734 2.555-.734.985 0 1.382.293 1.676.567.439.439.461.922.461 1.486v4.442zm-1.528-2.116c-.754.564-2.808.984-2.808 2.723 0 .774.461 1.151 1.089 1.151.608 0 1.718-.733 1.718-1.298V10.24zm19.155-.964c-.042.189-.063.523-.063 1.005 0 2.053 1.299 3.604 2.975 3.604 1.277 0 2.178-.734 2.535-1.425.043-.084.126-.126.189-.104l.272.146c.063.022.105.084 0 .314-.377.838-1.466 2.283-3.331 2.283-1.194 0-2.514-.356-3.289-1.488-.733-1.068-.921-1.842-.921-3.309 0-.816.209-2.221 1.319-3.331.901-.921 1.948-1.11 2.995-1.11 2.409 0 3.08 2.262 3.08 3.08 0 .293-.251.335-.586.335h-5.175zm3.331-.627c.398 0 .565-.106.565-.294 0-.481-.251-1.864-1.613-1.864-.921 0-1.801.607-2.199 2.158h3.247zm21.39 5.253a1.14 1.14 0 0 0-.091-.225c-.07-.137-.225-.084-.319-.019-.428.295-.786.401-1.1.401-1.185 0-1.339-1.411-1.758-3.207-.259-1.109-.684-3.643-2.003-3.857l.029-.086c1.357-1.236 5.604-4.643 6.544-5.197.465-.273.986-.398 1.28-.398h.292c.105 0 .181-.043.215-.146l.033-.566c.02-.063-.009-.104-.114-.104-.251 0-.856.063-1.463.063-.964 0-1.951-.063-2.202-.063-.084 0-.139.042-.172.147l-.007.48c-.034.105-.026.146.058.146h.441c.272 0 .31.21.027.504-.276.271-5.547 4.843-6.115 5.178l-1.032.074.288-.899c.329-1.026 1.296-3.851 1.396-4.165.162-.502.376-.648.795-.648h.732c.105 0 .16-.043.193-.146l.027-.545c.026-.084-.002-.126-.127-.126-.272 0-.836.063-2.24.063-1.57 0-2.179-.063-2.43-.063-.126 0-.182.042-.208.126l-.027.545c-.034.104-.005.146.121.146h.881c.523 0 .541.271.467.502-.054.168-1.157 3.809-1.277 4.186l-.39 1.215c-.838 2.618-2.047 6.262-2.129 6.45-.109.21-.31.378-.687.378h-.858c-.084 0-.154.02-.188.125l-.026.545c-.034.104-.005.146.1.146.188 0 .731-.063 2.385-.063 1.488 0 2.096.063 2.347.063.105 0 .146-.063.173-.146l.026-.545c.026-.084-.022-.125-.127-.125h-.92c-.272 0-.4-.189-.334-.461.072-.294.97-3.225 1.306-4.273l.493-1.539s.871-.081 1.173-.044c1.236.152 1.405 3.631 2.123 5.812.315.956.768 1.521 1.991 1.521.5 0 1.095-.127 2.136-.757.09-.053.332-.176.272-.403zm-49.41 0a1.726 1.726 0 0 0-.164-.225c-.113-.137-.251-.084-.325-.019-.333.295-.656.401-.971.401-1.281 0-1.828-1.373-2.833-3.165-.398-.714-1.713-3.647-3.19-3.899V6.91c.962-1.236 4.118-4.643 4.881-5.197.377-.273.858-.398 1.152-.398h.44c.104 0 .167-.043.167-.146V.602c0-.063-.042-.104-.147-.104-.251 0-.984.063-1.591.063-.964 0-1.823-.063-2.074-.063-.084 0-.126.042-.126.147v.48c0 .105.021.146.105.146h.293c.273 0 .377.21.189.504-.189.272-3.848 4.843-4.309 5.178l-1.156.074v-.899c0-1.026.063-3.851.063-4.165 0-.502.168-.648.586-.648h.88c.105 0 .146-.043.146-.146V.623c0-.084-.042-.126-.168-.126-.272 0-.963.063-2.367.063C.94.56.459.497.208.497.082.497.04.539.04.623v.545c0 .104.042.146.168.146h.733c.523 0 .628.271.628.502 0 .168.063 3.809.063 4.186v1.215c0 2.618-.042 6.262-.063 6.45-.041.21-.188.378-.565.378H.147c-.084 0-.147.019-.147.125v.545c0 .104.042.146.147.146.188 0 .711-.063 2.366-.063 1.487 0 2.115.063 2.367.063.105 0 .126-.063.126-.146v-.545c0-.084-.063-.125-.168-.125h-.922c-.272 0-.46-.189-.481-.461-.021-.294-.063-3.225-.063-4.273V7.773s.509-.036.823 0c1.286.151 2.608 3.587 4.025 5.768.622.956 1.403 1.521 2.626 1.521.5 0 1.202-.127 2.043-.757.071-.053.274-.176.141-.403zm16.343 1.104v.196c-.244-.336-.755-1.169-.391-1.478.122-.103.256-.203.391-.305v.904c.733 0 1.404-.226 1.885-.535.879-.576 1.55-1.479 1.55-3.352 0-1.049-.188-2.529-1.592-3.352a3.756 3.756 0 0 0-1.843-.494v.836a2.895 2.895 0 0 0-.248-.287c-.13-.13-.426-.454-.501-.621a.307.307 0 0 1-.02-.07c.026-.02.052-.041.077-.064.201-.185.35-.477.458-.727a.112.112 0 0 1 .01-.022c.081-.06.158-.11.225-.153v.433a5.645 5.645 0 0 1 2.343.419c1.424.565 2.682 1.842 2.682 4.125 0 2.074-1.131 3.479-2.661 4.107-.797.315-1.444.482-2.365.44z"/><path class="st0" d="M27.971 15.006v.196c.244-.336.755-1.169.391-1.478-.121-.103-.257-.203-.391-.305v.904a3.555 3.555 0 0 1-1.885-.535c-.879-.576-1.55-1.479-1.55-3.352 0-1.049.188-2.529 1.592-3.352a3.756 3.756 0 0 1 1.843-.494v.836c.076-.1.157-.195.248-.287.131-.13.426-.454.501-.621a.264.264 0 0 0 .02-.07 2.003 2.003 0 0 1-.077-.064c-.2-.185-.349-.477-.458-.727l-.009-.022a3.977 3.977 0 0 0-.225-.153v.433a5.655 5.655 0 0 0-2.344.419c-1.424.565-2.681 1.842-2.681 4.125 0 2.074 1.131 3.479 2.661 4.107.795.315 1.441.482 2.364.44z"/><path class="st0" d="M29.405 14.524c0 1.088 0 3.956.021 4.605.021.355.105.648.545.648h.942c.189 0 .231.063.231.189v.355c0 .126-.042.21-.126.21-.146 0-1.068-.063-2.367-.063-1.34 0-2.179.063-2.367.063-.104 0-.146-.084-.146-.21v-.355c0-.147.042-.189.272-.189h1.005c.231 0 .44-.146.461-.523.021-.648.021-3.956.021-5.171V6.847c0-1.487-.021-3.394-.063-3.939-.042-.712-.377-1.047-1.047-1.257l-.419-.146c-.104-.042-.125-.063-.125-.104v-.169c0-.063.058-.123.188-.146.847-.15 1.676-.416 2.451-.92.188-.125.314-.166.439-.166.147 0 .188.104.168.376a643.854 643.854 0 0 0-.085 6.366v7.782zm58.521.216c-.104 0-.186-.041-.123-.213l1.566-3.856c.536-1.342 1.154-2.813 1.195-3.195 0-.213-.062-.342-.206-.342-.288 0-1.546 1.258-1.731 1.514-.062.084-.165.063-.248-.022l-.186-.191c-.061-.064-.082-.129-.02-.193.474-.574 2.082-2.363 3.381-2.363.289 0 .494.256.494.596 0 .512-1.257 3.324-1.463 3.899l.103.021c.948-1.512 3.071-4.516 4.824-4.516.681 0 .907.532.907.916 0 .788-.824 2.834-1.176 3.686l.104.021c1.135-1.79 2.99-4.622 4.741-4.622.64 0 .99.553.99 1.022 0 .725-.392 1.62-1.258 3.793-.475 1.214-.866 2.109-.866 2.492 0 .149.063.277.226.277.371 0 1.354-1.523 1.479-1.693.062-.106.164-.084.247 0l.229.148c.063.064.082.127.042.234-.063.149-1.845 2.801-3.185 2.801-.305 0-.508-.312-.508-.631 0-.533.418-1.84 1.242-3.928.598-1.512.99-2.406.99-3.025 0-.255-.166-.404-.434-.404-.701 0-2.721 2.365-3.979 4.261-.145.234-.577.767-.846 1.513l-.701 1.875c-.041.105-.123.127-.287.127h-.825c-.165 0-.247-.041-.187-.17l1.402-3.537c.578-1.469 1.195-2.981 1.195-3.578 0-.277-.164-.426-.412-.426-.701 0-2.659 2.172-3.834 3.877-.31.447-.722 1.043-1.031 1.811l-.742 1.897c-.082.127-.145.127-.33.127h-.779zm14.251-5.817c-.041-.022-.062-.085-.021-.192.123-.256 1.291-2.852 2.549-2.852.639 0 .865.532 1.03 2.406.206 2.43.351 4.922.392 6.307l.082-.021c.578-.959 1.814-3.494 2.104-4.516.104-.363.309-.938.309-1.854 0-.234-.041-.618-.102-.789-.083-.191-.227-.49-.227-.766 0-.342.185-.768.845-.768.557 0 .825.532.825 1.064 0 1.385-.784 3.175-1.382 4.517-.906 2.046-3.072 5.858-4.865 7.67-.557.597-1.917 1.938-3.133 1.938-.805 0-1.154-.512-1.154-1.002 0-.531.453-.852.823-.873.351-.021.536.148.763.342.145.127.352.254.516.254.207 0 .558-.127.969-.447 1.135-.873 1.938-2.108 2.268-2.875.166-.405.186-.874.166-1.193-.041-.49-.434-6.284-.66-7.393-.082-.404-.186-.596-.351-.596-.371 0-1.03 1.256-1.196 1.725-.04.086-.123.086-.184.064l-.366-.15zm12.657-4.663c.062-.17.123-.235.269-.299l1.277-.469c.042-.021.103-.021.146-.021.04 0 .061.043.061.086s0 .105-.041.17l-.948 2.216c.124-.021.269-.042.413-.042.145-.022.309-.022.412-.022 1.958 0 2.844 1.448 2.844 2.832 0 1.492-.639 3.025-2.453 4.432-.906.683-2.597 1.406-4.287 1.598l-1.465 4.219c-.371 1.15-.205 1.448.66 1.448h.577c.103 0 .165.107.146.171l-.146.426c-.041.064-.083.128-.247.128-.227 0-.846-.064-2.165-.064-1.422 0-1.979.064-2.206.064-.123 0-.165-.042-.144-.128l.124-.426c.02-.085.04-.171.144-.171h.475c.804 0 1.134-.489 1.567-1.726l4.039-11.483c-1.01.299-2.123 1.363-2.556 1.918-.062.084-.144.064-.185.021l-.227-.213c-.061-.064-.083-.129-.021-.193.721-.894 1.689-1.873 3.277-2.492l.66-1.98zm-2.061 9.842c2.474-.404 5.051-2.279 5.051-4.9 0-1.64-.948-2.449-1.855-2.449-.31 0-.516.043-.659.064l-2.537 7.285zm-33.872-1.975l-.165-.17c-.082-.086-.186-.106-.246 0-.125.17-1.11 1.533-1.482 1.533-.164 0-.227-.127-.227-.276 0-.384.393-1.278.867-2.493.555-1.391.893-2.266 1.102-2.893.133-.398.606-1.949-1.196-1.949-.231 0-1.692-.004-4.329 1.054-.082.032-.088.099-.057.184l.124.29c.021.057.087.11.178.059 4.565-1.667 4.151-.127 4.076.146-.189.702-.589 1.695-1.019 2.783-.824 2.088-1.402 3.516-1.402 4.049 0 .318.313.51.52.51 1.34 0 3.236-2.442 3.299-2.592.04-.106.02-.171-.043-.235zm49.566-6.248c.082 0 .104.105.061.191-.391.873-1.441 3.813-1.545 4.154-.124.361-.99 3.004-.99 3.195 0 .191.104.256.227.256.248 0 1.3-1.107 1.443-1.3.063-.064.124-.106.164-.042l.24.172c.061.064.082.106.041.17-.226.427-1.926 2.277-3.101 2.277-.248 0-.581-.084-.581-.361 0-.32.206-.98.989-3.238l-.102-.043c-.866 1.363-2.948 3.642-4.412 3.642-.475 0-1.113-.404-1.113-1.363 0-3.109 3.381-7.711 5.896-7.711.865 0 1.257.383 1.463.724l.393-.574c.063-.086.123-.149.207-.149h.72zm-2.599 3.706c.289-.617.495-1.149.495-1.768 0-.575-.206-1.257-.969-1.257-1.897 0-4.103 4.494-4.103 6.518 0 .49.206.746.557.746 1.031.001 3.65-3.451 4.02-4.239z"/><path class="st0" d="M76.723 6.195l-.105-.051c-.164 0-.313.162-.439.367a.718.718 0 0 0 .525-.174c.032-.027.062-.055.09-.085-.024-.018-.05-.037-.071-.057z"/><path class="st0" d="M75.495 6.461c-.058.013-.116.02-.174.023.019.053-.024.053-.046.124-.857 2.815-2.945 7.036-4.055 6.962-.326-.022-.392-.305-.824-.367-.393-.057-.9.231-.996.846-.098.633.342 1.019.873 1.053 1.076.066 1.965-.676 3.512-3.337.529-.909 1.438-3.001 2.168-4.628.076-.17.178-.42.301-.625-.24-.012-.481-.108-.759-.051zm10.042 2.308c-.815.043-2.078 1.179-2.701 1.954h-.084s1.619-3.365 1.619-4.312c0-.362-.247-.532-.494-.532-1.32-.064-3.274 2.492-3.357 2.62-.063.085-.02.128.063.191l.164.192c.063.063.144.063.227-.021.33-.341 1.151-1.492 1.501-1.492.165 0 .289.086.289.277 0 1.424-1.997 4.309-1.997 6.272 0 .617.563 1.072 1.188 1.168 1.092.167 2.299-.757 2.961-1.417 1.379-1.401 1.84-2.827 1.812-3.693-.027-.779-.451-1.247-1.191-1.207zm-1.531 4.698c-.543.58-1.102.902-1.504.902-.312 0-.531-.063-.531-.514 0-1.467 1.926-4.125 2.994-4.125.278 0 .463.17.475.482.036 1.102-.689 2.458-1.434 3.255zM69.492 5.879c-.66 0-.845.426-.845.768 0 .275.144.574.227.766.061.171.102.555.102.789 0 .916-.205 1.49-.309 1.854-.289 1.021-1.525 3.557-2.103 4.516l-.083.021c-.041-1.385-.186-3.877-.392-6.307-.165-1.874-.392-2.406-1.03-2.406-.271 0-.534.121-.781.314-1.065.74-2.095 1.995-2.151 2.084-.062.085-.021.128.062.191l.165.191c.062.064.144.064.227-.022.329-.34 1.299-1.49 1.649-1.49.112 0 .205.04.253.127l-.003.008c.008.01.015.022.022.034a.316.316 0 0 1 .017.107c0 .009.016.031.037.06.023.113.042.255.071.397.226 1.108.618 6.902.66 7.393.02.319 0 .788-.165 1.193-.33.767-1.134 2.002-2.268 2.875-.412.32-.762.447-.969.447-.165 0-.371-.127-.515-.254-.227-.193-.412-.363-.763-.342-.371.021-.825.342-.825.873 0 .49.351 1.002 1.155 1.002 1.216 0 2.577-1.342 3.134-1.938 1.794-1.812 3.958-5.624 4.865-7.67.599-1.342 1.381-3.132 1.381-4.517-.001-.532-.268-1.064-.825-1.064z"/></svg>